# MagicaVoxel @ Ephtracy

# group
o 

# material
mtllib Hero.mtl
usemtl palette

# normals
vn -1 0 0
vn 1 0 0
vn 0 0 1
vn 0 0 -1
vn 0 -1 0
vn 0 1 0

# texcoords
vt 0.423828 0.5
vt 0.427734 0.5
vt 0.447266 0.5
vt 0.962891 0.5
vt 0.994141 0.5

# verts
v 4.9 2.6 -3.8
v 4.9 2.6 -5.9
v 4.9 5.7 -3.8
v 4.9 5.7 -5.9
v 4.9 5.9 -3.8
v 4.9 5.9 -5.9
v 4.9 6.8 -3.8
v 4.9 6.8 -5.9
v 5 2 -3.6
v 5 2 -6.2
v 5 2.6 -3.8
v 5 2.6 -5.9
v 5 5.7 -3.8
v 5 5.7 -5.9
v 5 5.9 -3.8
v 5 5.9 -5.9
v 5 6.8 -3.8
v 5 6.8 -5.9
v 5 7.1 -3.6
v 5 7.1 -3.8
v 5 7.1 -6
v 5 7.1 -6.2
v 5 7.2 -3.8
v 5 7.2 -6
v 5.1 7.1 -3.7
v 5.1 7.1 -3.8
v 5.1 7.1 -6
v 5.1 7.1 -6.1
v 5.1 7.2 -3.7
v 5.1 7.2 -3.8
v 5.1 7.2 -6
v 5.1 7.2 -6.1
v 5.2 7.1 -3.6
v 5.2 7.1 -3.7
v 5.2 7.1 -6.1
v 5.2 7.1 -6.2
v 5.2 7.2 -3.6
v 5.2 7.2 -3.7
v 5.2 7.2 -6.1
v 5.2 7.2 -6.2
v 5.6 5.3 -3.5
v 5.6 5.3 -3.6
v 5.6 5.9 -3.5
v 5.6 5.9 -3.6
v 5.7 5.2 -3.5
v 5.7 5.2 -3.6
v 5.7 5.3 -2.8
v 5.7 5.3 -3.5
v 5.7 5.3 -3.6
v 5.7 5.9 -2.8
v 5.7 5.9 -3.5
v 5.7 5.9 -3.6
v 5.7 6 -3.5
v 5.7 6 -3.6
v 6.4 5.2 -3.5
v 6.4 5.2 -3.6
v 6.4 5.3 -2.8
v 6.4 5.3 -3.5
v 6.4 5.3 -3.6
v 6.4 5.9 -2.8
v 6.4 5.9 -3.5
v 6.4 5.9 -3.6
v 6.4 6 -3.5
v 6.4 6 -3.6
v 6.5 5.3 -3.5
v 6.5 5.3 -3.6
v 6.5 5.9 -3.5
v 6.5 5.9 -3.6
v 7 7.1 -3.6
v 7 7.1 -3.7
v 7 7.1 -6.1
v 7 7.1 -6.2
v 7 7.2 -3.6
v 7 7.2 -3.7
v 7 7.2 -6.1
v 7 7.2 -6.2
v 7.1 7.1 -3.7
v 7.1 7.1 -3.8
v 7.1 7.1 -6
v 7.1 7.1 -6.1
v 7.1 7.2 -3.7
v 7.1 7.2 -3.8
v 7.1 7.2 -6
v 7.1 7.2 -6.1
v 7.2 2 -3.6
v 7.2 2 -6.2
v 7.2 7.1 -3.6
v 7.2 7.1 -3.8
v 7.2 7.1 -6
v 7.2 7.1 -6.2
v 7.2 7.2 -3.8
v 7.2 7.2 -6
v 5.7 5.3 -2.8
v 5.7 5.9 -2.8
v 6.4 5.3 -2.8
v 6.4 5.9 -2.8
v 5.6 5.3 -3.5
v 5.6 5.9 -3.5
v 5.7 5.2 -3.5
v 5.7 5.3 -3.5
v 5.7 5.9 -3.5
v 5.7 6 -3.5
v 6.4 5.2 -3.5
v 6.4 5.3 -3.5
v 6.4 5.9 -3.5
v 6.4 6 -3.5
v 6.5 5.3 -3.5
v 6.5 5.9 -3.5
v 5 2 -3.6
v 5 7.1 -3.6
v 5.2 7.1 -3.6
v 5.2 7.2 -3.6
v 5.3 6.5 -3.6
v 5.3 6.8 -3.6
v 5.4 6.4 -3.6
v 5.4 6.5 -3.6
v 5.4 6.8 -3.6
v 5.4 6.9 -3.6
v 5.6 5.3 -3.6
v 5.6 5.9 -3.6
v 5.7 5.2 -3.6
v 5.7 5.3 -3.6
v 5.7 5.9 -3.6
v 5.7 6 -3.6
v 5.7 6.4 -3.6
v 5.7 6.5 -3.6
v 5.7 6.8 -3.6
v 5.7 6.9 -3.6
v 5.8 6.5 -3.6
v 5.8 6.8 -3.6
v 6.4 5.2 -3.6
v 6.4 5.3 -3.6
v 6.4 5.9 -3.6
v 6.4 6 -3.6
v 6.4 6.5 -3.6
v 6.4 6.8 -3.6
v 6.5 5.3 -3.6
v 6.5 5.9 -3.6
v 6.5 6.4 -3.6
v 6.5 6.5 -3.6
v 6.5 6.8 -3.6
v 6.5 6.9 -3.6
v 6.8 6.4 -3.6
v 6.8 6.5 -3.6
v 6.8 6.8 -3.6
v 6.8 6.9 -3.6
v 6.9 6.5 -3.6
v 6.9 6.8 -3.6
v 7 7.1 -3.6
v 7 7.2 -3.6
v 7.2 2 -3.6
v 7.2 7.1 -3.6
v 5.1 7.1 -3.7
v 5.1 7.2 -3.7
v 5.2 7.1 -3.7
v 5.2 7.2 -3.7
v 7 7.1 -3.7
v 7 7.2 -3.7
v 7.1 7.1 -3.7
v 7.1 7.2 -3.7
v 4.9 2.6 -3.8
v 4.9 5.7 -3.8
v 4.9 5.9 -3.8
v 4.9 6.8 -3.8
v 5 2.6 -3.8
v 5 5.7 -3.8
v 5 5.9 -3.8
v 5 6.8 -3.8
v 5 7.1 -3.8
v 5 7.2 -3.8
v 5.1 7.1 -3.8
v 5.1 7.2 -3.8
v 7.1 7.1 -3.8
v 7.1 7.2 -3.8
v 7.2 7.1 -3.8
v 7.2 7.2 -3.8
v 4.9 2.6 -5.9
v 4.9 5.7 -5.9
v 4.9 5.9 -5.9
v 4.9 6.8 -5.9
v 5 2.6 -5.9
v 5 5.7 -5.9
v 5 5.9 -5.9
v 5 6.8 -5.9
v 5 7.1 -6
v 5 7.2 -6
v 5.1 7.1 -6
v 5.1 7.2 -6
v 7.1 7.1 -6
v 7.1 7.2 -6
v 7.2 7.1 -6
v 7.2 7.2 -6
v 5.1 7.1 -6.1
v 5.1 7.2 -6.1
v 5.2 7.1 -6.1
v 5.2 7.2 -6.1
v 7 7.1 -6.1
v 7 7.2 -6.1
v 7.1 7.1 -6.1
v 7.1 7.2 -6.1
v 5 2 -6.2
v 5 7.1 -6.2
v 5.2 7.1 -6.2
v 5.2 7.2 -6.2
v 7 7.1 -6.2
v 7 7.2 -6.2
v 7.2 2 -6.2
v 7.2 7.1 -6.2
v 5 2 -3.6
v 7.2 2 -3.6
v 5 2 -6.2
v 7.2 2 -6.2
v 4.9 2.6 -3.8
v 5 2.6 -3.8
v 4.9 2.6 -5.9
v 5 2.6 -5.9
v 5.7 5.2 -3.5
v 6.4 5.2 -3.5
v 5.7 5.2 -3.6
v 6.4 5.2 -3.6
v 5.7 5.3 -2.8
v 6.4 5.3 -2.8
v 5.6 5.3 -3.5
v 5.7 5.3 -3.5
v 6.4 5.3 -3.5
v 6.5 5.3 -3.5
v 5.6 5.3 -3.6
v 5.7 5.3 -3.6
v 6.4 5.3 -3.6
v 6.5 5.3 -3.6
v 4.9 5.9 -3.8
v 5 5.9 -3.8
v 4.9 5.9 -5.9
v 5 5.9 -5.9
v 4.9 5.7 -3.8
v 5 5.7 -3.8
v 4.9 5.7 -5.9
v 5 5.7 -5.9
v 5.7 5.9 -2.8
v 6.4 5.9 -2.8
v 5.6 5.9 -3.5
v 5.7 5.9 -3.5
v 6.4 5.9 -3.5
v 6.5 5.9 -3.5
v 5.6 5.9 -3.6
v 5.7 5.9 -3.6
v 6.4 5.9 -3.6
v 6.5 5.9 -3.6
v 5.7 6 -3.5
v 6.4 6 -3.5
v 5.7 6 -3.6
v 6.4 6 -3.6
v 4.9 6.8 -3.8
v 5 6.8 -3.8
v 4.9 6.8 -5.9
v 5 6.8 -5.9
v 5 7.1 -3.6
v 5.2 7.1 -3.6
v 7 7.1 -3.6
v 7.2 7.1 -3.6
v 5.1 7.1 -3.7
v 5.2 7.1 -3.7
v 7 7.1 -3.7
v 7.1 7.1 -3.7
v 5 7.1 -3.8
v 5.1 7.1 -3.8
v 7.1 7.1 -3.8
v 7.2 7.1 -3.8
v 5 7.1 -6
v 5.1 7.1 -6
v 7.1 7.1 -6
v 7.2 7.1 -6
v 5.1 7.1 -6.1
v 5.2 7.1 -6.1
v 7 7.1 -6.1
v 7.1 7.1 -6.1
v 5 7.1 -6.2
v 5.2 7.1 -6.2
v 7 7.1 -6.2
v 7.2 7.1 -6.2
v 5.2 7.2 -3.6
v 7 7.2 -3.6
v 5.1 7.2 -3.7
v 5.2 7.2 -3.7
v 7 7.2 -3.7
v 7.1 7.2 -3.7
v 5 7.2 -3.8
v 5.1 7.2 -3.8
v 7.1 7.2 -3.8
v 7.2 7.2 -3.8
v 5 7.2 -6
v 5.1 7.2 -6
v 7.1 7.2 -6
v 7.2 7.2 -6
v 5.1 7.2 -6.1
v 5.2 7.2 -6.1
v 7 7.2 -6.1
v 7.1 7.2 -6.1
v 5.2 7.2 -6.2
v 7 7.2 -6.2

# faces
f 3/3/1 2/3/1 1/3/1
f 4/3/1 2/3/1 3/3/1
f 7/3/1 6/3/1 5/3/1
f 8/3/1 6/3/1 7/3/1
f 11/2/1 10/2/1 9/2/1
f 12/2/1 10/2/1 11/2/1
f 13/2/1 11/2/1 9/2/1
f 14/2/1 10/2/1 12/2/1
f 15/2/1 13/2/1 9/2/1
f 15/2/1 14/2/1 13/2/1
f 16/2/1 10/2/1 14/2/1
f 16/2/1 14/2/1 15/2/1
f 17/2/1 15/2/1 9/2/1
f 18/2/1 10/2/1 16/2/1
f 19/2/1 17/2/1 9/2/1
f 19/2/1 18/2/1 17/2/1
f 20/2/1 18/2/1 19/2/1
f 21/2/1 10/2/1 18/2/1
f 21/2/1 18/2/1 20/2/1
f 22/2/1 10/2/1 21/2/1
f 23/2/1 21/2/1 20/2/1
f 24/2/1 21/2/1 23/2/1
f 29/2/1 26/2/1 25/2/1
f 30/2/1 26/2/1 29/2/1
f 31/2/1 28/2/1 27/2/1
f 32/2/1 28/2/1 31/2/1
f 37/2/1 34/2/1 33/2/1
f 38/2/1 34/2/1 37/2/1
f 39/2/1 36/2/1 35/2/1
f 40/2/1 36/2/1 39/2/1
f 43/5/1 42/5/1 41/5/1
f 44/5/1 42/5/1 43/5/1
f 48/5/1 46/5/1 45/5/1
f 49/5/1 46/5/1 48/5/1
f 50/5/1 48/5/1 47/5/1
f 51/5/1 48/5/1 50/5/1
f 53/5/1 52/5/1 51/5/1
f 54/5/1 52/5/1 53/5/1
f 55/5/2 56/5/2 58/5/2
f 58/5/2 56/5/2 59/5/2
f 57/5/2 58/5/2 60/5/2
f 60/5/2 58/5/2 61/5/2
f 61/5/2 62/5/2 63/5/2
f 63/5/2 62/5/2 64/5/2
f 65/5/2 66/5/2 67/5/2
f 67/5/2 66/5/2 68/5/2
f 69/2/2 70/2/2 73/2/2
f 73/2/2 70/2/2 74/2/2
f 71/2/2 72/2/2 75/2/2
f 75/2/2 72/2/2 76/2/2
f 77/2/2 78/2/2 81/2/2
f 81/2/2 78/2/2 82/2/2
f 79/2/2 80/2/2 83/2/2
f 83/2/2 80/2/2 84/2/2
f 85/2/2 86/2/2 87/2/2
f 87/2/2 86/2/2 88/2/2
f 88/2/2 86/2/2 89/2/2
f 89/2/2 86/2/2 90/2/2
f 88/2/2 89/2/2 91/2/2
f 91/2/2 89/2/2 92/2/2
f 95/5/3 94/5/3 93/5/3
f 96/5/3 94/5/3 95/5/3
f 100/5/3 98/5/3 97/5/3
f 101/5/3 98/5/3 100/5/3
f 103/5/3 100/5/3 99/5/3
f 104/5/3 100/5/3 103/5/3
f 105/5/3 102/5/3 101/5/3
f 106/5/3 102/5/3 105/5/3
f 107/5/3 105/5/3 104/5/3
f 108/5/3 105/5/3 107/5/3
f 111/2/3 110/2/3 109/2/3
f 113/2/3 111/2/3 109/2/3
f 113/2/3 112/2/3 111/2/3
f 114/2/3 112/2/3 113/2/3
f 115/2/3 113/2/3 109/2/3
f 116/4/3 114/4/3 113/4/3
f 116/2/3 113/2/3 115/2/3
f 117/2/3 112/2/3 114/2/3
f 117/4/3 114/4/3 116/4/3
f 118/2/3 112/2/3 117/2/3
f 119/2/3 115/2/3 109/2/3
f 120/2/3 115/2/3 119/2/3
f 121/2/3 119/2/3 109/2/3
f 122/2/3 119/2/3 121/2/3
f 123/2/3 115/2/3 120/2/3
f 124/2/3 115/2/3 123/2/3
f 125/4/3 116/4/3 115/4/3
f 125/2/3 115/2/3 124/2/3
f 126/1/3 117/1/3 116/1/3
f 126/4/3 116/4/3 125/4/3
f 127/4/3 118/4/3 117/4/3
f 127/1/3 117/1/3 126/1/3
f 128/2/3 112/2/3 118/2/3
f 128/4/3 118/4/3 127/4/3
f 129/4/3 127/4/3 126/4/3
f 129/2/3 125/2/3 124/2/3
f 129/2/3 126/2/3 125/2/3
f 130/2/3 128/2/3 127/2/3
f 130/4/3 127/4/3 129/4/3
f 131/2/3 121/2/3 109/2/3
f 134/2/3 129/2/3 124/2/3
f 134/2/3 130/2/3 129/2/3
f 135/2/3 130/2/3 134/2/3
f 136/2/3 128/2/3 130/2/3
f 136/2/3 130/2/3 135/2/3
f 137/2/3 132/2/3 131/2/3
f 138/2/3 135/2/3 134/2/3
f 138/2/3 134/2/3 133/2/3
f 139/2/3 135/2/3 138/2/3
f 140/4/3 136/4/3 135/4/3
f 140/2/3 135/2/3 139/2/3
f 141/2/3 128/2/3 136/2/3
f 141/4/3 136/4/3 140/4/3
f 142/2/3 112/2/3 128/2/3
f 142/2/3 128/2/3 141/2/3
f 143/4/3 140/4/3 139/4/3
f 143/2/3 139/2/3 138/2/3
f 143/2/3 138/2/3 137/2/3
f 144/1/3 141/1/3 140/1/3
f 144/4/3 140/4/3 143/4/3
f 145/4/3 142/4/3 141/4/3
f 145/1/3 141/1/3 144/1/3
f 146/2/3 112/2/3 142/2/3
f 146/4/3 142/4/3 145/4/3
f 147/4/3 145/4/3 144/4/3
f 147/2/3 144/2/3 143/2/3
f 148/2/3 146/2/3 145/2/3
f 148/4/3 145/4/3 147/4/3
f 149/2/3 112/2/3 146/2/3
f 149/2/3 146/2/3 148/2/3
f 149/2/3 148/2/3 147/2/3
f 150/2/3 112/2/3 149/2/3
f 151/2/3 143/2/3 137/2/3
f 151/2/3 137/2/3 131/2/3
f 151/2/3 149/2/3 147/2/3
f 151/2/3 147/2/3 143/2/3
f 151/2/3 131/2/3 109/2/3
f 152/2/3 149/2/3 151/2/3
f 155/2/3 154/2/3 153/2/3
f 156/2/3 154/2/3 155/2/3
f 159/2/3 158/2/3 157/2/3
f 160/2/3 158/2/3 159/2/3
f 165/3/3 162/3/3 161/3/3
f 166/3/3 162/3/3 165/3/3
f 167/3/3 164/3/3 163/3/3
f 168/3/3 164/3/3 167/3/3
f 171/2/3 170/2/3 169/2/3
f 172/2/3 170/2/3 171/2/3
f 175/2/3 174/2/3 173/2/3
f 176/2/3 174/2/3 175/2/3
f 177/3/4 178/3/4 181/3/4
f 181/3/4 178/3/4 182/3/4
f 179/3/4 180/3/4 183/3/4
f 183/3/4 180/3/4 184/3/4
f 185/2/4 186/2/4 187/2/4
f 187/2/4 186/2/4 188/2/4
f 189/2/4 190/2/4 191/2/4
f 191/2/4 190/2/4 192/2/4
f 193/2/4 194/2/4 195/2/4
f 195/2/4 194/2/4 196/2/4
f 197/2/4 198/2/4 199/2/4
f 199/2/4 198/2/4 200/2/4
f 201/2/4 202/2/4 203/2/4
f 201/2/4 203/2/4 205/2/4
f 203/2/4 204/2/4 205/2/4
f 205/2/4 204/2/4 206/2/4
f 201/2/4 205/2/4 207/2/4
f 207/2/4 205/2/4 208/2/4
f 211/2/5 210/2/5 209/2/5
f 212/2/5 210/2/5 211/2/5
f 215/3/5 214/3/5 213/3/5
f 216/3/5 214/3/5 215/3/5
f 219/5/5 218/5/5 217/5/5
f 220/5/5 218/5/5 219/5/5
f 224/5/5 222/5/5 221/5/5
f 225/5/5 222/5/5 224/5/5
f 227/5/5 224/5/5 223/5/5
f 228/5/5 224/5/5 227/5/5
f 229/5/5 226/5/5 225/5/5
f 230/5/5 226/5/5 229/5/5
f 233/3/5 232/3/5 231/3/5
f 234/3/5 232/3/5 233/3/5
f 235/3/6 236/3/6 237/3/6
f 237/3/6 236/3/6 238/3/6
f 239/5/6 240/5/6 242/5/6
f 242/5/6 240/5/6 243/5/6
f 241/5/6 242/5/6 245/5/6
f 245/5/6 242/5/6 246/5/6
f 243/5/6 244/5/6 247/5/6
f 247/5/6 244/5/6 248/5/6
f 249/5/6 250/5/6 251/5/6
f 251/5/6 250/5/6 252/5/6
f 253/3/6 254/3/6 255/3/6
f 255/3/6 254/3/6 256/3/6
f 257/2/6 258/2/6 261/2/6
f 261/2/6 258/2/6 262/2/6
f 259/2/6 260/2/6 263/2/6
f 263/2/6 260/2/6 264/2/6
f 257/2/6 261/2/6 265/2/6
f 265/2/6 261/2/6 266/2/6
f 264/2/6 260/2/6 267/2/6
f 267/2/6 260/2/6 268/2/6
f 269/2/6 270/2/6 273/2/6
f 271/2/6 272/2/6 276/2/6
f 273/2/6 274/2/6 277/2/6
f 269/2/6 273/2/6 277/2/6
f 277/2/6 274/2/6 278/2/6
f 275/2/6 276/2/6 279/2/6
f 276/2/6 272/2/6 280/2/6
f 279/2/6 276/2/6 280/2/6
f 281/2/6 282/2/6 284/2/6
f 284/2/6 282/2/6 285/2/6
f 283/2/6 284/2/6 288/2/6
f 285/2/6 286/2/6 288/2/6
f 284/2/6 285/2/6 288/2/6
f 288/2/6 286/2/6 289/2/6
f 287/2/6 288/2/6 291/2/6
f 289/2/6 290/2/6 291/2/6
f 288/2/6 289/2/6 291/2/6
f 291/2/6 290/2/6 292/2/6
f 292/2/6 290/2/6 293/2/6
f 293/2/6 290/2/6 294/2/6
f 292/2/6 293/2/6 295/2/6
f 295/2/6 293/2/6 296/2/6
f 296/2/6 293/2/6 297/2/6
f 297/2/6 293/2/6 298/2/6
f 296/2/6 297/2/6 299/2/6
f 299/2/6 297/2/6 300/2/6
